<svg width="70" height="79" viewBox="0 0 70 79" fill="none" xmlns="http://www.w3.org/2000/svg">
<path d="M68.1468 4.12449C61.4089 1 34.4471 1 34.4471 1C34.4471 1 7.5716 1 0.853191 4.12449C0.853191 4.12449 -1.06649 37.4201 0.853191 51.9885C2.00463 60.7066 13.8205 68.3091 23.1118 73.0087C25.6838 74.31 28.0646 75.3897 29.975 76.2033C32.6917 77.3626 34.448 78 34.448 78C34.448 78 34.5343 77.9735 34.6883 77.9119C35.5716 77.5842 38.8153 76.3453 42.972 74.3981C52.5212 69.9022 66.8701 61.6272 68.1468 51.9885C70.0665 37.4201 68.1468 4.12449 68.1468 4.12449ZM15.8655 48.13C15.8655 48.13 15.4721 56.3613 14.6751 60.379C14.4162 61.7239 14.7233 63.0611 15.2512 64.2555C9.73252 60.4585 5.00059 55.7941 4.33812 50.6967C4.10802 48.9351 3.93544 46.8732 3.81946 44.6162C4.39564 45.2451 5.21121 45.802 6.35336 46.1211C6.35336 46.1211 5.16296 41.3685 7.14016 41.7313C7.14016 41.7313 9.72231 41.1829 10.7105 39.5368C10.7114 39.5359 16.4602 41.3677 15.8655 48.13ZM43.8729 69.9287C43.8729 69.9244 43.8729 69.9193 43.8739 69.915C43.8971 69.305 43.7384 68.7044 43.4563 68.1525C42.9729 67.2046 41.9384 65.2779 41.1293 64.4446C40.8797 64.1879 40.7183 63.8679 40.7313 63.5231C40.7684 62.4862 41.1702 60.2703 43.6243 58.0082C43.6243 58.0082 50.1701 52.8835 49.5754 50.1397C49.5754 50.1397 52.5509 49.5913 53.3377 50.3253C53.3377 50.3253 56.5146 49.9626 57.9063 50.3253C59.2888 50.6881 62.2644 52.7064 63.0604 52.3342C63.0604 52.3342 63.5596 52.5378 64.1831 52.6884C61.7355 59.9101 51.6287 66.1052 43.8729 69.9287H43.8729ZM65.1045 46.0407C64.5672 45.642 63.8472 45.3854 62.8582 45.3854C60.084 45.3854 60.084 45.7575 57.9054 45.7575C55.7167 45.7575 53.7395 44.837 53.7395 44.837C53.7395 44.837 57.7932 40.0784 57.0128 36.627C56.9535 36.3627 56.9498 36.0932 57.0398 35.8357C57.3348 34.9946 58.13 33.1056 59.5458 32.321C59.9819 32.0798 60.3066 31.7025 60.3605 31.2353C60.5627 29.478 61.1742 25.9728 62.0612 25.462C62.0612 25.462 62.7635 23.8647 62.4638 23.2667C62.1048 22.5489 61.7661 21.2715 59.6804 21.9834C59.1951 22.1493 56.4951 24.0991 56.0266 24.8443C55.4522 25.7581 54.7276 27.0636 54.7276 27.8336C54.7276 27.8336 54.4344 28.7585 54.6821 30.2489C54.7109 30.4234 51.7521 37.7102 49.9669 38.0738C49.9669 38.0738 46.9914 33.1355 44.8128 32.5863C44.8128 32.5863 42.2409 32.4092 41.6452 31.8607C41.6452 31.8607 43.6224 30.4003 45.8112 30.9402C45.8112 30.9402 46.0032 27.1081 46.9914 27.1081C46.9914 27.1081 44.0251 26.9225 42.6334 27.4709C42.6334 27.4709 38.4674 26.3732 42.0386 23.6294C42.0386 23.6294 43.229 24.1779 44.0251 24.1779C44.0251 24.1779 44.8119 25.2755 44.8119 26.0096C44.8119 26.0096 45.8102 26.0096 45.8102 25.6374L46.2036 26.0096C46.2036 26.0096 47.394 24.5406 47.394 23.8142C47.394 23.8142 49.7739 21.0705 49.477 19.8847C49.477 19.8847 47.2883 18.4157 44.515 18.4157C44.515 18.4157 43.7282 16.2297 40.5513 15.6805C40.5513 15.6805 36.981 13.1138 35.9919 13.1138L36.981 14.0344C36.981 14.0344 29.7439 11.928 28.3615 13.5741C28.3615 13.5741 31.337 14.1225 31.337 15.0345C31.337 15.0345 26.5763 13.9369 25.3859 15.7695C25.3859 15.7695 26.9697 15.4067 27.3631 15.7695C27.3631 15.7695 21.6134 17.964 21.22 19.2387C21.22 19.2387 22.209 18.876 22.6117 19.2387C22.6117 19.2387 21.0186 20.5221 21.0186 21.0705C21.0186 21.0705 22.017 20.7077 22.017 21.0705C22.017 21.0705 19.0414 24.177 19.4348 25.4603C19.4348 25.4603 20.0296 24.5398 21.4213 24.5398C21.4213 24.5398 20.423 27.4692 18.8392 28.3812C18.8392 28.3812 19.8282 28.3812 20.423 27.8328C20.423 27.8328 19.2326 31.4877 16.065 32.2226C16.065 32.2226 16.862 32.5854 17.8501 32.5854C17.8501 32.5854 19.6352 33.3203 19.6352 34.2315C19.6352 34.2315 21.8138 33.506 22.4094 33.8687C22.4094 33.8687 23.2065 38.6213 24.9916 38.6213C24.9916 38.6213 26.3741 42.8255 27.7658 43.374C27.7658 43.374 28.1592 46.4805 28.7549 47.0289C28.7549 47.0289 29.1483 54.3482 27.7658 55.6229C27.7658 55.6229 22.0931 61.19 21.6421 65.3498C21.6134 65.6509 21.3257 65.8545 20.9991 65.8186C20.3849 65.739 19.4924 65.5269 19.2335 64.9511C19.2335 64.9511 16.8629 61.8445 17.6497 57.8174C17.6497 57.8174 18.6248 52.4206 18.3688 49.0933C18.3224 48.4868 18.2834 47.881 18.2667 47.2727C18.2129 45.3161 17.4697 40.4719 11.7088 37.8856C11.7088 37.8856 9.12664 35.1504 6.1511 36.0624C4.99966 36.4166 4.17389 37.2311 3.59771 38.1072C3.38616 24.2737 4.33719 7.776 4.33719 7.776C10.3551 4.97919 34.4564 4.97919 34.4564 4.97919C34.4564 4.97919 58.6245 4.97919 64.6619 7.776C64.6628 7.78028 66.0453 31.6503 65.1045 46.0407Z" fill="#5777A8" stroke="#5777A8"/>
</svg>


