<svg width="552" 
    height="402" 
    viewBox="0 0 552 402" 
    fill="none" 
    xmlns="http://www.w3.org/2000/svg"
>
<g clip-path="url(#clip0)">
<path d="M45.2812 161H38.4961V137.34H12.6914V161H5.94141V109.812H12.6914V131.82H38.4961V109.812H45.2812V161ZM78.2944 161C77.9194 160.25 77.6147 158.914 77.3803 156.992C74.3569 160.133 70.7475 161.703 66.5522 161.703C62.8022 161.703 59.7202 160.648 57.3061 158.539C54.9155 156.406 53.7202 153.711 53.7202 150.453C53.7202 146.492 55.2202 143.422 58.2202 141.242C61.2436 139.039 65.4858 137.938 70.9467 137.938H77.2748V134.949C77.2748 132.676 76.5952 130.871 75.2358 129.535C73.8764 128.176 71.8725 127.496 69.2241 127.496C66.9038 127.496 64.9584 128.082 63.3881 129.254C61.8178 130.426 61.0327 131.844 61.0327 133.508H54.4936C54.4936 131.609 55.1616 129.781 56.4975 128.023C57.8569 126.242 59.685 124.836 61.9819 123.805C64.3022 122.773 66.8452 122.258 69.6108 122.258C73.9936 122.258 77.4272 123.359 79.9116 125.562C82.3959 127.742 83.685 130.754 83.7788 134.598V152.105C83.7788 155.598 84.2241 158.375 85.1147 160.438V161H78.2944ZM67.5014 156.043C69.5405 156.043 71.4741 155.516 73.3022 154.461C75.1303 153.406 76.4545 152.035 77.2748 150.348V142.543H72.1772C64.2084 142.543 60.2241 144.875 60.2241 149.539C60.2241 151.578 60.9038 153.172 62.2631 154.32C63.6225 155.469 65.3686 156.043 67.5014 156.043ZM110.921 128.797C109.936 128.633 108.87 128.551 107.722 128.551C103.456 128.551 100.561 130.367 99.038 134V161H92.5341V122.961H98.8622L98.9677 127.355C101.1 123.957 104.124 122.258 108.038 122.258C109.304 122.258 110.265 122.422 110.921 122.75V128.797ZM133.879 128.797C132.895 128.633 131.828 128.551 130.68 128.551C126.414 128.551 123.52 130.367 121.996 134V161H115.493V122.961H121.821L121.926 127.355C124.059 123.957 127.082 122.258 130.996 122.258C132.262 122.258 133.223 122.422 133.879 122.75V128.797ZM151.529 151.473L160.388 122.961H167.349L152.056 166.871C149.689 173.199 145.928 176.363 140.771 176.363L139.541 176.258L137.115 175.801V170.527L138.873 170.668C141.076 170.668 142.787 170.223 144.006 169.332C145.248 168.441 146.267 166.812 147.064 164.445L148.506 160.578L134.935 122.961H142.037L151.529 151.473ZM195.934 140.961V161H189.184V109.812H208.063C213.665 109.812 218.048 111.242 221.212 114.102C224.399 116.961 225.993 120.746 225.993 125.457C225.993 130.426 224.434 134.258 221.317 136.953C218.223 139.625 213.782 140.961 207.993 140.961H195.934ZM195.934 135.441H208.063C211.673 135.441 214.438 134.598 216.36 132.91C218.282 131.199 219.243 128.738 219.243 125.527C219.243 122.48 218.282 120.043 216.36 118.215C214.438 116.387 211.801 115.438 208.45 115.367H195.934V135.441ZM229.932 141.629C229.932 137.902 230.658 134.551 232.111 131.574C233.588 128.598 235.627 126.301 238.229 124.684C240.854 123.066 243.842 122.258 247.193 122.258C252.373 122.258 256.557 124.051 259.744 127.637C262.955 131.223 264.561 135.992 264.561 141.945V142.402C264.561 146.105 263.846 149.434 262.416 152.387C261.01 155.316 258.982 157.602 256.334 159.242C253.709 160.883 250.686 161.703 247.264 161.703C242.107 161.703 237.924 159.91 234.713 156.324C231.525 152.738 229.932 147.992 229.932 142.086V141.629ZM236.471 142.402C236.471 146.621 237.443 150.008 239.389 152.562C241.357 155.117 243.982 156.395 247.264 156.395C250.568 156.395 253.193 155.105 255.139 152.527C257.084 149.926 258.057 146.293 258.057 141.629C258.057 137.457 257.061 134.082 255.068 131.504C253.1 128.902 250.475 127.602 247.193 127.602C243.982 127.602 241.393 128.879 239.424 131.434C237.455 133.988 236.471 137.645 236.471 142.402ZM280.101 113.75V122.961H287.203V127.988H280.101V151.578C280.101 153.102 280.418 154.25 281.05 155.023C281.683 155.773 282.761 156.148 284.285 156.148C285.035 156.148 286.066 156.008 287.378 155.727V161C285.668 161.469 284.003 161.703 282.386 161.703C279.48 161.703 277.289 160.824 275.812 159.066C274.335 157.309 273.597 154.812 273.597 151.578V127.988H266.671V122.961H273.597V113.75H280.101ZM302.216 113.75V122.961H309.317V127.988H302.216V151.578C302.216 153.102 302.532 154.25 303.165 155.023C303.798 155.773 304.876 156.148 306.399 156.148C307.149 156.148 308.181 156.008 309.493 155.727V161C307.782 161.469 306.118 161.703 304.501 161.703C301.595 161.703 299.403 160.824 297.927 159.066C296.45 157.309 295.712 154.812 295.712 151.578V127.988H288.786V122.961H295.712V113.75H302.216ZM331.291 161.703C326.135 161.703 321.94 160.016 318.705 156.641C315.471 153.242 313.854 148.707 313.854 143.035V141.84C313.854 138.066 314.569 134.703 315.998 131.75C317.452 128.773 319.467 126.453 322.045 124.789C324.647 123.102 327.459 122.258 330.483 122.258C335.428 122.258 339.272 123.887 342.014 127.145C344.756 130.402 346.127 135.066 346.127 141.137V143.844H320.358C320.452 147.594 321.541 150.629 323.627 152.949C325.737 155.246 328.409 156.395 331.643 156.395C333.94 156.395 335.885 155.926 337.479 154.988C339.073 154.051 340.467 152.809 341.663 151.262L345.635 154.355C342.448 159.254 337.666 161.703 331.291 161.703ZM330.483 127.602C327.858 127.602 325.655 128.562 323.873 130.484C322.092 132.383 320.991 135.055 320.569 138.5H339.623V138.008C339.436 134.703 338.545 132.148 336.952 130.344C335.358 128.516 333.202 127.602 330.483 127.602ZM370.633 128.797C369.648 128.633 368.582 128.551 367.433 128.551C363.168 128.551 360.273 130.367 358.75 134V161H352.246V122.961H358.574L358.68 127.355C360.812 123.957 363.836 122.258 367.75 122.258C369.015 122.258 369.976 122.422 370.633 122.75V128.797Z" fill="#3461A4"/>
<path d="M68.1468 11.1245C61.4089 8 34.4471 8 34.4471 8C34.4471 8 7.5716 8 0.853191 11.1245C0.853191 11.1245 -1.06649 44.4201 0.853191 58.9885C2.00463 67.7066 13.8205 75.3091 23.1118 80.0087C25.6838 81.31 28.0646 82.3897 29.975 83.2033C32.6917 84.3626 34.448 85 34.448 85C34.448 85 34.5343 84.9735 34.6883 84.9119C35.5716 84.5842 38.8153 83.3453 42.972 81.3981C52.5212 76.9022 66.8701 68.6272 68.1468 58.9885C70.0665 44.4201 68.1468 11.1245 68.1468 11.1245ZM15.8655 55.13C15.8655 55.13 15.4721 63.3613 14.6751 67.379C14.4162 68.7239 14.7233 70.0611 15.2512 71.2555C9.73252 67.4585 5.00059 62.7941 4.33812 57.6967C4.10802 55.9351 3.93544 53.8732 3.81946 51.6162C4.39564 52.2451 5.21121 52.802 6.35336 53.1211C6.35336 53.1211 5.16296 48.3685 7.14016 48.7313C7.14016 48.7313 9.72231 48.1829 10.7105 46.5368C10.7114 46.5359 16.4602 48.3677 15.8655 55.13ZM43.8729 76.9287C43.8729 76.9244 43.8729 76.9193 43.8739 76.915C43.8971 76.305 43.7384 75.7044 43.4563 75.1525C42.9729 74.2046 41.9384 72.2779 41.1293 71.4446C40.8797 71.1879 40.7183 70.8679 40.7313 70.5231C40.7684 69.4862 41.1702 67.2703 43.6243 65.0082C43.6243 65.0082 50.1701 59.8835 49.5754 57.1397C49.5754 57.1397 52.5509 56.5913 53.3377 57.3253C53.3377 57.3253 56.5146 56.9626 57.9063 57.3253C59.2888 57.6881 62.2644 59.7064 63.0604 59.3342C63.0604 59.3342 63.5596 59.5378 64.1831 59.6884C61.7355 66.9101 51.6287 73.1052 43.8729 76.9287H43.8729ZM65.1045 53.0407C64.5672 52.642 63.8472 52.3854 62.8582 52.3854C60.084 52.3854 60.084 52.7575 57.9054 52.7575C55.7167 52.7575 53.7395 51.837 53.7395 51.837C53.7395 51.837 57.7932 47.0784 57.0128 43.627C56.9535 43.3627 56.9498 43.0932 57.0398 42.8357C57.3348 41.9946 58.13 40.1056 59.5458 39.321C59.9819 39.0798 60.3066 38.7025 60.3605 38.2353C60.5627 36.478 61.1742 32.9728 62.0612 32.462C62.0612 32.462 62.7635 30.8647 62.4638 30.2667C62.1048 29.5489 61.7661 28.2715 59.6804 28.9834C59.1951 29.1493 56.4951 31.0991 56.0266 31.8443C55.4522 32.7581 54.7276 34.0636 54.7276 34.8336C54.7276 34.8336 54.4344 35.7585 54.6821 37.2489C54.7109 37.4234 51.7521 44.7102 49.9669 45.0738C49.9669 45.0738 46.9914 40.1355 44.8128 39.5863C44.8128 39.5863 42.2409 39.4092 41.6452 38.8607C41.6452 38.8607 43.6224 37.4003 45.8112 37.9402C45.8112 37.9402 46.0032 34.1081 46.9914 34.1081C46.9914 34.1081 44.0251 33.9225 42.6334 34.4709C42.6334 34.4709 38.4674 33.3732 42.0386 30.6294C42.0386 30.6294 43.229 31.1779 44.0251 31.1779C44.0251 31.1779 44.8119 32.2755 44.8119 33.0096C44.8119 33.0096 45.8102 33.0096 45.8102 32.6374L46.2036 33.0096C46.2036 33.0096 47.394 31.5406 47.394 30.8142C47.394 30.8142 49.7739 28.0705 49.477 26.8847C49.477 26.8847 47.2883 25.4157 44.515 25.4157C44.515 25.4157 43.7282 23.2297 40.5513 22.6805C40.5513 22.6805 36.981 20.1138 35.9919 20.1138L36.981 21.0344C36.981 21.0344 29.7439 18.928 28.3615 20.5741C28.3615 20.5741 31.337 21.1225 31.337 22.0345C31.337 22.0345 26.5763 20.9369 25.3859 22.7695C25.3859 22.7695 26.9697 22.4067 27.3631 22.7695C27.3631 22.7695 21.6134 24.964 21.22 26.2387C21.22 26.2387 22.209 25.876 22.6117 26.2387C22.6117 26.2387 21.0186 27.5221 21.0186 28.0705C21.0186 28.0705 22.017 27.7077 22.017 28.0705C22.017 28.0705 19.0414 31.177 19.4348 32.4603C19.4348 32.4603 20.0296 31.5398 21.4213 31.5398C21.4213 31.5398 20.423 34.4692 18.8392 35.3812C18.8392 35.3812 19.8282 35.3812 20.423 34.8328C20.423 34.8328 19.2326 38.4877 16.065 39.2226C16.065 39.2226 16.862 39.5854 17.8501 39.5854C17.8501 39.5854 19.6352 40.3203 19.6352 41.2315C19.6352 41.2315 21.8138 40.506 22.4094 40.8687C22.4094 40.8687 23.2065 45.6213 24.9916 45.6213C24.9916 45.6213 26.3741 49.8255 27.7658 50.374C27.7658 50.374 28.1592 53.4805 28.7549 54.0289C28.7549 54.0289 29.1483 61.3482 27.7658 62.6229C27.7658 62.6229 22.0931 68.19 21.6421 72.3498C21.6134 72.6509 21.3257 72.8545 20.9991 72.8186C20.3849 72.739 19.4924 72.5269 19.2335 71.9511C19.2335 71.9511 16.8629 68.8445 17.6497 64.8174C17.6497 64.8174 18.6248 59.4206 18.3688 56.0933C18.3224 55.4868 18.2834 54.881 18.2667 54.2727C18.2129 52.3161 17.4697 47.4719 11.7088 44.8856C11.7088 44.8856 9.12664 42.1504 6.1511 43.0624C4.99966 43.4166 4.17389 44.2311 3.59771 45.1072C3.38616 31.2737 4.33719 14.776 4.33719 14.776C10.3551 11.9792 34.4564 11.9792 34.4564 11.9792C34.4564 11.9792 58.6245 11.9792 64.6619 14.776C64.6628 14.7803 66.0453 38.6503 65.1045 53.0407Z" fill="#5777A8" stroke="#5777A8"/>
<rect x="23.5" y="219.5" width="325" height="44" fill="white" stroke="#5777A8"/>
<path d="M23 285H170V328H23V285Z" fill="#65E1CB"/>
<path d="M202 285H349V328H202V285Z" fill="#F8A388"/>
<path d="M87.1855 312.668C86.5833 313.531 85.741 314.178 84.6587 314.609C83.5845 315.033 82.3312 315.244 80.8989 315.244C79.4504 315.244 78.1646 314.906 77.0415 314.231C75.9185 313.547 75.0477 312.579 74.4292 311.326C73.8188 310.072 73.5055 308.62 73.4893 306.968V305.417C73.4893 302.74 74.1118 300.665 75.3569 299.192C76.6102 297.719 78.368 296.982 80.6304 296.982C82.4858 296.982 83.9792 297.458 85.1104 298.411C86.2415 299.355 86.9333 300.697 87.1855 302.439H84.8418C84.4023 300.087 83.0026 298.911 80.6426 298.911C79.0719 298.911 77.8797 299.465 77.0659 300.571C76.2603 301.67 75.8534 303.265 75.8452 305.356V306.809C75.8452 308.803 76.3009 310.39 77.2124 311.57C78.1239 312.742 79.3568 313.328 80.9111 313.328C81.79 313.328 82.5591 313.23 83.2183 313.035C83.8774 312.839 84.4227 312.51 84.854 312.046V308.054H80.7402V306.15H87.1855V312.668ZM98.4043 315C98.2741 314.74 98.1683 314.276 98.0869 313.608C97.0371 314.699 95.7839 315.244 94.3271 315.244C93.0251 315.244 91.9549 314.878 91.1167 314.146C90.2866 313.405 89.8716 312.469 89.8716 311.338C89.8716 309.963 90.3924 308.896 91.4341 308.14C92.4839 307.375 93.9569 306.992 95.853 306.992H98.0503V305.955C98.0503 305.165 97.8143 304.539 97.3423 304.075C96.8703 303.603 96.1745 303.367 95.2549 303.367C94.4492 303.367 93.7738 303.57 93.2285 303.977C92.6833 304.384 92.4106 304.876 92.4106 305.454H90.1401C90.1401 304.795 90.3721 304.16 90.8359 303.55C91.3079 302.931 91.9427 302.443 92.7402 302.085C93.5459 301.727 94.4289 301.548 95.3892 301.548C96.911 301.548 98.1032 301.93 98.9658 302.695C99.8285 303.452 100.276 304.498 100.309 305.833V311.912C100.309 313.124 100.463 314.089 100.772 314.805V315H98.4043ZM94.6567 313.279C95.3647 313.279 96.0361 313.096 96.6709 312.729C97.3057 312.363 97.7655 311.887 98.0503 311.301V308.591H96.2803C93.5133 308.591 92.1299 309.401 92.1299 311.021C92.1299 311.729 92.3659 312.282 92.8379 312.681C93.3099 313.079 93.9162 313.279 94.6567 313.279ZM105.802 315H103.544V301.792H105.802V315ZM103.361 298.289C103.361 297.922 103.471 297.613 103.69 297.361C103.918 297.109 104.252 296.982 104.691 296.982C105.131 296.982 105.465 297.109 105.692 297.361C105.92 297.613 106.034 297.922 106.034 298.289C106.034 298.655 105.92 298.96 105.692 299.204C105.465 299.448 105.131 299.57 104.691 299.57C104.252 299.57 103.918 299.448 103.69 299.204C103.471 298.96 103.361 298.655 103.361 298.289ZM111.064 301.792L111.137 303.452C112.146 302.183 113.465 301.548 115.092 301.548C117.884 301.548 119.292 303.123 119.316 306.272V315H117.058V306.26C117.049 305.308 116.83 304.604 116.398 304.148C115.975 303.692 115.312 303.464 114.409 303.464C113.676 303.464 113.033 303.66 112.48 304.05C111.927 304.441 111.495 304.954 111.186 305.588V315H108.928V301.792H111.064Z" fill="white"/>
<path d="M254.419 313.083H262.842V315H252.063V297.227H254.419V313.083ZM264.063 308.274C264.063 306.98 264.315 305.816 264.82 304.783C265.333 303.749 266.041 302.952 266.944 302.39C267.855 301.829 268.893 301.548 270.057 301.548C271.855 301.548 273.308 302.17 274.415 303.416C275.529 304.661 276.087 306.317 276.087 308.384V308.542C276.087 309.828 275.839 310.984 275.342 312.009C274.854 313.027 274.15 313.82 273.23 314.39C272.319 314.959 271.269 315.244 270.081 315.244C268.291 315.244 266.838 314.622 265.723 313.376C264.616 312.131 264.063 310.483 264.063 308.433V308.274ZM266.333 308.542C266.333 310.007 266.671 311.183 267.347 312.07C268.03 312.957 268.942 313.401 270.081 313.401C271.229 313.401 272.14 312.953 272.815 312.058C273.491 311.155 273.829 309.893 273.829 308.274C273.829 306.825 273.483 305.653 272.791 304.758C272.107 303.855 271.196 303.403 270.057 303.403C268.942 303.403 268.042 303.847 267.359 304.734C266.675 305.621 266.333 306.89 266.333 308.542ZM286.109 311.497C286.109 310.886 285.877 310.414 285.414 310.081C284.958 309.739 284.156 309.446 283.009 309.202C281.869 308.958 280.962 308.665 280.287 308.323C279.619 307.981 279.123 307.574 278.797 307.102C278.48 306.63 278.321 306.069 278.321 305.417C278.321 304.335 278.777 303.42 279.688 302.671C280.608 301.922 281.78 301.548 283.204 301.548C284.701 301.548 285.914 301.934 286.842 302.708C287.778 303.481 288.246 304.469 288.246 305.674H285.975C285.975 305.055 285.711 304.522 285.182 304.075C284.661 303.627 284.002 303.403 283.204 303.403C282.382 303.403 281.739 303.582 281.275 303.94C280.812 304.299 280.58 304.766 280.58 305.344C280.58 305.889 280.795 306.3 281.227 306.577C281.658 306.854 282.435 307.118 283.558 307.371C284.689 307.623 285.605 307.924 286.305 308.274C287.005 308.624 287.521 309.047 287.855 309.543C288.197 310.032 288.368 310.63 288.368 311.338C288.368 312.518 287.896 313.466 286.952 314.182C286.008 314.89 284.783 315.244 283.277 315.244C282.219 315.244 281.284 315.057 280.47 314.683C279.656 314.308 279.017 313.787 278.553 313.12C278.097 312.445 277.87 311.716 277.87 310.935H280.128C280.169 311.692 280.47 312.294 281.031 312.742C281.601 313.181 282.35 313.401 283.277 313.401C284.132 313.401 284.815 313.23 285.328 312.888C285.849 312.538 286.109 312.074 286.109 311.497ZM296.291 315.244C294.5 315.244 293.043 314.658 291.92 313.486C290.797 312.306 290.236 310.732 290.236 308.762V308.347C290.236 307.037 290.484 305.869 290.98 304.844C291.485 303.81 292.185 303.005 293.08 302.427C293.983 301.841 294.96 301.548 296.01 301.548C297.727 301.548 299.062 302.113 300.014 303.245C300.966 304.376 301.442 305.995 301.442 308.103V309.043H292.494C292.527 310.345 292.905 311.399 293.629 312.205C294.362 313.002 295.29 313.401 296.413 313.401C297.21 313.401 297.886 313.238 298.439 312.913C298.992 312.587 299.477 312.156 299.892 311.619L301.271 312.693C300.164 314.394 298.504 315.244 296.291 315.244ZM296.01 303.403C295.098 303.403 294.333 303.737 293.715 304.404C293.096 305.063 292.714 305.991 292.567 307.188H299.184V307.017C299.118 305.869 298.809 304.982 298.256 304.355C297.702 303.721 296.954 303.403 296.01 303.403Z" fill="white"/>
</g>
<defs>
<clipPath id="clip0">
<rect width="552" height="402" fill="white"/>
</clipPath>
</defs>
</svg>
